<svg width="104" height="73" viewBox="0 0 104 73" fill="none" xmlns="http://www.w3.org/2000/svg">
<g clip-path="url(#clip0_1_871)">
<path d="M101.703 11.3858C100.489 6.90744 96.9849 3.40911 92.4988 2.19727C84.4284 0 51.9465 0 51.9465 0C51.9465 0 19.4646 0.066584 11.3942 2.26385C6.90811 3.47569 3.40378 6.97403 2.18986 11.4524C-0.251279 25.768 -1.19839 47.5809 2.25656 61.3238C3.47048 65.8022 6.9748 69.3005 11.4609 70.5124C19.5313 72.7096 52.0132 72.7096 52.0132 72.7096C52.0132 72.7096 84.4951 72.7096 92.5655 70.5124C97.0516 69.3005 100.556 65.8022 101.77 61.3238C104.344 46.9883 105.138 25.1887 101.703 11.3858Z" fill="#FF0000"/>
<path d="M68.2436 50.2346C67.4571 50.2346 66.5992 49.8819 66.0987 49.1765C65.1693 47.9773 65.3123 46.2844 66.5277 45.3673L77.9667 36.3381L66.5277 27.3089C65.3123 26.3919 65.1693 24.6284 66.0987 23.4997C67.0282 22.3006 68.8155 22.1595 69.9594 23.0765L84.1151 34.2219C84.7586 34.7157 85.1875 35.4917 85.1875 36.3381C85.1875 37.1846 84.8301 37.9606 84.1151 38.4544L69.9594 49.6703C69.4589 50.0936 68.887 50.2346 68.2436 50.2346Z" fill="white"/>
<path d="M34.944 50.2346C34.372 50.2346 33.7286 50.0236 33.2281 49.6717L19.0724 38.4842C18.429 37.9917 18 37.2177 18 36.3734C18 35.529 18.3575 34.755 19.0724 34.2625L33.2281 23.075C34.4435 22.1603 36.1594 22.301 37.0888 23.4972C38.0182 24.6933 37.8752 26.382 36.6598 27.2967L25.2208 36.3734L36.6598 45.3797C37.8752 46.2944 38.0182 48.0534 37.0888 49.1792C36.5883 49.8828 35.7304 50.2346 34.944 50.2346Z" fill="white"/>
<path d="M45.9326 58.7151C45.646 58.7151 45.431 58.7151 45.1443 58.5739C43.6395 58.1505 42.7795 56.6683 43.2095 55.1861L54.6035 16.0147C55.0335 14.5325 56.5384 13.6855 58.0432 14.109C59.5481 14.5325 60.408 16.0147 59.9781 17.4968L48.584 56.7389C48.2257 57.9387 47.1508 58.7151 45.9326 58.7151Z" fill="white"/>
</g>
<defs>
<clipPath id="clip0_1_871">
<rect width="104" height="73" fill="white"/>
</clipPath>
</defs>
</svg>
